<?xml version="1.0" encoding="utf-8"?>
<svg viewBox="-147.814 60.335 50 56" xmlns="http://www.w3.org/2000/svg">
  <path d="M -147.814 60.335 L -97.814 60.335 L -97.814 116.335 L -147.814 116.335 L -147.814 60.335 Z M -141.814 63.335 L -144.814 67.335 L -144.814 103.335 L -143.814 105.335 L -141.814 106.335 L -126.814 106.335 C -124.814 105.002 -124.481 102.668 -125.814 99.335 L -136.814 99.335 L -129.814 89.335 L -132.814 88.335 L -126.814 79.335 C -126.147 77.335 -126.814 76.668 -128.814 77.335 L -124.814 70.335 L -121.814 68.335 L -116.814 76.335 C -116.147 77.668 -116.814 78.002 -118.814 77.335 L -112.814 88.335 L -115.814 89.335 L -109.814 98.335 L -108.814 99.335 L -119.814 99.335 L -119.814 105.335 L -117.814 106.335 L -102.814 106.335 L -100.814 103.335 L -100.814 67.335 L -101.814 65.335 L -102.814 63.335 L -141.814 63.335 Z" style="fill: rgba(255, 255, 255, 1);"/>
</svg>