<?xml version="1.0" encoding="utf-8"?>
<svg viewBox="-145.299 132.937 44.97 44.851" xmlns="http://www.w3.org/2000/svg">
  <path d="M -116.314 133.304 C -108.425 132.082 -103.592 133.915 -101.814 138.804 C -100.259 140.915 -99.925 144.249 -100.814 148.804 L -110.314 159.304 C -112.425 160.859 -115.759 161.193 -120.314 160.304 L -130.314 155.304 L -138.814 162.804 L -139.814 166.804 L -136.314 171.304 L -133.314 172.304 C -128.731 171.221 -125.564 168.721 -123.814 164.804 L -122.314 162.304 L -117.814 164.804 L -118.814 167.804 L -127.314 176.304 C -129.425 177.859 -132.759 178.193 -137.314 177.304 L -143.814 171.804 C -145.369 169.693 -145.703 166.359 -144.814 161.804 L -135.314 151.304 C -133.203 149.749 -129.869 149.415 -125.314 150.304 L -115.314 155.304 L -106.814 147.804 L -105.814 143.804 L -109.314 139.304 L -112.314 138.304 C -116.897 139.387 -120.064 141.887 -121.814 145.804 L -123.314 148.304 L -127.814 145.804 L -126.814 142.804 L -118.314 134.304 L -116.314 133.304 Z" style="fill: rgba(255, 255, 255, 1);"/>
</svg>