<?xml version="1.0" encoding="utf-8"?>
<svg viewBox="-163.894 2.706 81.734 34.359" xmlns="http://www.w3.org/2000/svg">
  <path d="M -160.348 28.915 Q -160.891 28.915 -161.263 28.543 Q -161.635 28.171 -161.635 27.628 L -161.635 15.359 Q -161.635 14.815 -161.263 14.429 Q -160.891 14.043 -160.348 14.043 Q -159.804 14.043 -159.418 14.429 Q -159.032 14.815 -159.032 15.359 L -159.032 16.588 Q -157.03 13.9 -154.542 13.9 L -154.399 13.9 Q -153.855 13.9 -153.498 14.272 Q -153.14 14.644 -153.14 15.187 Q -153.14 15.73 -153.512 16.074 Q -153.884 16.417 -154.456 16.417 L -154.599 16.417 Q -155.972 16.417 -157.116 17.089 Q -158.26 17.761 -159.032 18.934 L -159.032 27.628 Q -159.032 28.171 -159.418 28.543 Q -159.804 28.915 -160.348 28.915 Z" style="fill: rgb(255, 255, 255); white-space: pre;"/>
  <path d="M -144.593 29.058 Q -148.083 29.058 -150.042 27.07 Q -152.001 25.083 -152.001 21.479 Q -152.001 19.448 -151.257 17.732 Q -150.514 16.016 -148.969 14.958 Q -147.425 13.9 -145.165 13.9 Q -143.049 13.9 -141.505 14.887 Q -139.96 15.873 -139.159 17.518 Q -138.359 19.162 -138.359 21.107 Q -138.359 21.651 -138.716 22.022 Q -139.074 22.394 -139.674 22.394 L -149.37 22.394 Q -149.141 24.396 -147.882 25.512 Q -146.624 26.627 -144.365 26.627 Q -143.163 26.627 -142.263 26.398 Q -141.362 26.169 -140.504 25.74 Q -140.275 25.626 -139.989 25.626 Q -139.531 25.626 -139.188 25.941 Q -138.845 26.255 -138.845 26.741 Q -138.845 27.371 -139.588 27.8 Q -140.704 28.429 -141.791 28.743 Q -142.877 29.058 -144.593 29.058 Z M -140.933 20.278 Q -141.018 18.876 -141.662 17.933 Q -142.305 16.989 -143.249 16.545 Q -144.193 16.102 -145.165 16.102 Q -146.138 16.102 -147.082 16.545 Q -148.025 16.989 -148.655 17.933 Q -149.284 18.876 -149.37 20.278 Z" style="fill: rgb(255, 255, 255); white-space: pre;"/>
  <path d="M -128.901 29.058 Q -130.674 29.058 -132.261 28.157 Q -133.848 27.256 -134.835 25.526 Q -135.822 23.796 -135.822 21.479 Q -135.822 19.162 -134.835 17.432 Q -133.848 15.702 -132.261 14.801 Q -130.674 13.9 -128.901 13.9 Q -126.098 13.9 -124.01 16.074 L -124.01 9.067 Q -124.01 8.495 -123.624 8.123 Q -123.238 7.751 -122.694 7.751 Q -122.151 7.751 -121.779 8.137 Q -121.407 8.523 -121.407 9.067 L -121.407 27.628 Q -121.407 28.171 -121.779 28.543 Q -122.151 28.915 -122.694 28.915 Q -123.238 28.915 -123.624 28.543 Q -124.01 28.171 -124.01 27.628 L -124.01 26.884 Q -126.098 29.058 -128.901 29.058 Z M -128.529 26.627 Q -127.213 26.627 -126.055 26.041 Q -124.897 25.454 -124.01 24.482 L -124.01 18.476 Q -124.897 17.504 -126.055 16.917 Q -127.213 16.331 -128.529 16.331 Q -130.645 16.331 -131.932 17.675 Q -133.219 19.019 -133.219 21.479 Q -133.219 23.939 -131.932 25.283 Q -130.645 26.627 -128.529 26.627 Z" style="fill: rgb(255, 255, 255); white-space: pre;"/>
  <path d="M -110.861 29.058 Q -112.635 29.058 -114.222 28.157 Q -115.809 27.256 -116.796 25.526 Q -117.783 23.796 -117.783 21.479 Q -117.783 19.162 -116.796 17.432 Q -115.809 15.702 -114.222 14.801 Q -112.635 13.9 -110.861 13.9 Q -108.059 13.9 -105.971 16.074 L -105.971 9.067 Q -105.971 8.495 -105.585 8.123 Q -105.199 7.751 -104.655 7.751 Q -104.112 7.751 -103.74 8.137 Q -103.368 8.523 -103.368 9.067 L -103.368 27.628 Q -103.368 28.171 -103.74 28.543 Q -104.112 28.915 -104.655 28.915 Q -105.199 28.915 -105.585 28.543 Q -105.971 28.171 -105.971 27.628 L -105.971 26.884 Q -108.059 29.058 -110.861 29.058 Z M -110.49 26.627 Q -109.174 26.627 -108.016 26.041 Q -106.857 25.454 -105.971 24.482 L -105.971 18.476 Q -106.857 17.504 -108.016 16.917 Q -109.174 16.331 -110.49 16.331 Q -112.606 16.331 -113.893 17.675 Q -115.18 19.019 -115.18 21.479 Q -115.18 23.939 -113.893 25.283 Q -112.606 26.627 -110.49 26.627 Z" style="fill: rgb(255, 255, 255); white-space: pre;"/>
  <path d="M -97.627 11.212 Q -98.228 11.212 -98.657 10.783 Q -99.086 10.354 -99.086 9.753 L -99.086 9.639 Q -99.086 9.038 -98.657 8.609 Q -98.228 8.18 -97.627 8.18 L -97.455 8.18 Q -96.855 8.18 -96.426 8.609 Q -95.997 9.038 -95.997 9.639 L -95.997 9.753 Q -95.997 10.354 -96.426 10.783 Q -96.855 11.212 -97.455 11.212 L -97.627 11.212 Z M -97.57 28.915 Q -98.113 28.915 -98.485 28.543 Q -98.857 28.171 -98.857 27.628 L -98.857 15.359 Q -98.857 14.815 -98.485 14.429 Q -98.113 14.043 -97.57 14.043 Q -96.998 14.043 -96.626 14.415 Q -96.254 14.787 -96.254 15.359 L -96.254 27.628 Q -96.254 28.171 -96.64 28.543 Q -97.026 28.915 -97.57 28.915 Z" style="fill: rgb(255, 255, 255); white-space: pre;"/>
  <path d="M -86.711 29.058 Q -90.886 29.058 -90.886 25.283 L -90.886 16.417 L -92.917 16.417 Q -93.146 16.417 -93.303 16.259 Q -93.46 16.102 -93.46 15.873 Q -93.46 15.587 -93.203 15.387 L -89.313 11.583 Q -89.056 11.326 -88.827 11.326 Q -88.598 11.326 -88.441 11.498 Q -88.284 11.669 -88.284 11.898 L -88.284 14.186 L -85.052 14.186 Q -84.566 14.186 -84.251 14.501 Q -83.936 14.815 -83.936 15.301 Q -83.936 15.759 -84.251 16.088 Q -84.566 16.417 -85.052 16.417 L -88.284 16.417 L -88.284 25.054 Q -88.284 26.169 -87.754 26.47 Q -87.225 26.77 -86.425 26.77 Q -85.853 26.77 -85.281 26.598 Q -85.166 26.57 -85.037 26.541 Q -84.909 26.513 -84.709 26.513 Q -84.308 26.513 -83.994 26.813 Q -83.679 27.113 -83.679 27.542 Q -83.679 28.2 -84.337 28.543 Q -85.452 29.058 -86.711 29.058 Z" style="fill: rgb(255, 255, 255); white-space: pre;"/>
</svg>