<?xml version="1.0" encoding="utf-8"?>
<svg viewBox="-170.127 0.78 94.219 37.778" xmlns="http://www.w3.org/2000/svg">
  <g>
    <rect x="-170.127" y="0.78" width="94.219" height="37.778" style=""/>
    <path d="M -160.348 28.915 Q -160.891 28.915 -161.263 28.543 Q -161.635 28.171 -161.635 27.628 L -161.635 15.359 Q -161.635 14.815 -161.263 14.429 Q -160.891 14.043 -160.348 14.043 Q -159.804 14.043 -159.418 14.429 Q -159.032 14.815 -159.032 15.359 L -159.032 16.588 Q -157.03 13.9 -154.542 13.9 L -154.399 13.9 Q -153.855 13.9 -153.498 14.272 Q -153.14 14.644 -153.14 15.187 Q -153.14 15.73 -153.512 16.074 Q -153.884 16.417 -154.456 16.417 L -154.599 16.417 Q -155.972 16.417 -157.116 17.089 Q -158.26 17.761 -159.032 18.934 L -159.032 27.628 Q -159.032 28.171 -159.418 28.543 Q -159.804 28.915 -160.348 28.915 Z" style="fill: rgb(255, 255, 255); white-space: pre;"/>
    <path d="M -144.595 29.058 Q -148.084 29.058 -150.043 27.07 Q -152.002 25.083 -152.002 21.479 Q -152.002 19.448 -151.259 17.732 Q -150.515 16.016 -148.971 14.958 Q -147.426 13.9 -145.167 13.9 Q -143.05 13.9 -141.506 14.887 Q -139.962 15.873 -139.161 17.518 Q -138.36 19.162 -138.36 21.107 Q -138.36 21.651 -138.717 22.022 Q -139.075 22.394 -139.676 22.394 L -149.371 22.394 Q -149.142 24.396 -147.884 25.512 Q -146.625 26.627 -144.366 26.627 Q -143.165 26.627 -142.264 26.398 Q -141.363 26.169 -140.505 25.74 Q -140.276 25.626 -139.99 25.626 Q -139.533 25.626 -139.189 25.941 Q -138.846 26.255 -138.846 26.741 Q -138.846 27.371 -139.59 27.8 Q -140.705 28.429 -141.792 28.743 Q -142.879 29.058 -144.595 29.058 Z M -140.934 20.278 Q -141.02 18.876 -141.663 17.933 Q -142.307 16.989 -143.251 16.545 Q -144.194 16.102 -145.167 16.102 Q -146.139 16.102 -147.083 16.545 Q -148.027 16.989 -148.656 17.933 Q -149.285 18.876 -149.371 20.278 Z" style="fill: rgb(255, 255, 255); white-space: pre;"/>
    <path d="M -128.904 29.058 Q -130.677 29.058 -132.264 28.157 Q -133.852 27.256 -134.838 25.526 Q -135.825 23.796 -135.825 21.479 Q -135.825 19.162 -134.838 17.432 Q -133.852 15.702 -132.264 14.801 Q -130.677 13.9 -128.904 13.9 Q -126.101 13.9 -124.013 16.074 L -124.013 9.067 Q -124.013 8.495 -123.627 8.123 Q -123.241 7.751 -122.698 7.751 Q -122.154 7.751 -121.782 8.137 Q -121.411 8.523 -121.411 9.067 L -121.411 27.628 Q -121.411 28.171 -121.782 28.543 Q -122.154 28.915 -122.698 28.915 Q -123.241 28.915 -123.627 28.543 Q -124.013 28.171 -124.013 27.628 L -124.013 26.884 Q -126.101 29.058 -128.904 29.058 Z M -128.532 26.627 Q -127.216 26.627 -126.058 26.041 Q -124.9 25.454 -124.013 24.482 L -124.013 18.476 Q -124.9 17.504 -126.058 16.917 Q -127.216 16.331 -128.532 16.331 Q -130.648 16.331 -131.935 17.675 Q -133.222 19.019 -133.222 21.479 Q -133.222 23.939 -131.935 25.283 Q -130.648 26.627 -128.532 26.627 Z" style="fill: rgb(255, 255, 255); white-space: pre;"/>
    <path d="M -110.867 29.058 Q -112.64 29.058 -114.227 28.157 Q -115.814 27.256 -116.801 25.526 Q -117.788 23.796 -117.788 21.479 Q -117.788 19.162 -116.801 17.432 Q -115.814 15.702 -114.227 14.801 Q -112.64 13.9 -110.867 13.9 Q -108.064 13.9 -105.976 16.074 L -105.976 9.067 Q -105.976 8.495 -105.59 8.123 Q -105.204 7.751 -104.66 7.751 Q -104.117 7.751 -103.745 8.137 Q -103.373 8.523 -103.373 9.067 L -103.373 27.628 Q -103.373 28.171 -103.745 28.543 Q -104.117 28.915 -104.66 28.915 Q -105.204 28.915 -105.59 28.543 Q -105.976 28.171 -105.976 27.628 L -105.976 26.884 Q -108.064 29.058 -110.867 29.058 Z M -110.495 26.627 Q -109.179 26.627 -108.021 26.041 Q -106.863 25.454 -105.976 24.482 L -105.976 18.476 Q -106.863 17.504 -108.021 16.917 Q -109.179 16.331 -110.495 16.331 Q -112.611 16.331 -113.898 17.675 Q -115.185 19.019 -115.185 21.479 Q -115.185 23.939 -113.898 25.283 Q -112.611 26.627 -110.495 26.627 Z" style="fill: rgb(255, 255, 255); white-space: pre;"/>
    <path d="M -97.634 11.212 Q -98.235 11.212 -98.664 10.783 Q -99.093 10.354 -99.093 9.753 L -99.093 9.639 Q -99.093 9.038 -98.664 8.609 Q -98.235 8.18 -97.634 8.18 L -97.463 8.18 Q -96.862 8.18 -96.433 8.609 Q -96.004 9.038 -96.004 9.639 L -96.004 9.753 Q -96.004 10.354 -96.433 10.783 Q -96.862 11.212 -97.463 11.212 L -97.634 11.212 Z M -97.577 28.915 Q -98.12 28.915 -98.492 28.543 Q -98.864 28.171 -98.864 27.628 L -98.864 15.359 Q -98.864 14.815 -98.492 14.429 Q -98.12 14.043 -97.577 14.043 Q -97.005 14.043 -96.633 14.415 Q -96.261 14.787 -96.261 15.359 L -96.261 27.628 Q -96.261 28.171 -96.648 28.543 Q -97.034 28.915 -97.577 28.915 Z" style="fill: rgb(255, 255, 255); white-space: pre;"/>
    <path d="M -86.719 29.058 Q -90.894 29.058 -90.894 25.283 L -90.894 16.417 L -92.925 16.417 Q -93.154 16.417 -93.311 16.259 Q -93.468 16.102 -93.468 15.873 Q -93.468 15.587 -93.211 15.387 L -89.321 11.583 Q -89.064 11.326 -88.835 11.326 Q -88.606 11.326 -88.449 11.498 Q -88.292 11.669 -88.292 11.898 L -88.292 14.186 L -85.06 14.186 Q -84.574 14.186 -84.259 14.501 Q -83.945 14.815 -83.945 15.301 Q -83.945 15.759 -84.259 16.088 Q -84.574 16.417 -85.06 16.417 L -88.292 16.417 L -88.292 25.054 Q -88.292 26.169 -87.763 26.47 Q -87.234 26.77 -86.433 26.77 Q -85.861 26.77 -85.289 26.598 Q -85.174 26.57 -85.046 26.541 Q -84.917 26.513 -84.717 26.513 Q -84.316 26.513 -84.002 26.813 Q -83.687 27.113 -83.687 27.542 Q -83.687 28.2 -84.345 28.543 Q -85.46 29.058 -86.719 29.058 Z" style="fill: rgb(255, 255, 255); white-space: pre;"/>
  </g>
</svg>