<?xml version="1.0" encoding="UTF-8" standalone="no"?>
<svg
   viewBox="-147.814 60.335 50 56"
   version="1.1"
   id="svg1"
   sodipodi:docname="nsfw.svg"
   inkscape:version="1.4.3 (0d15f75042, 2025-12-25)"
   xmlns:inkscape="http://www.inkscape.org/namespaces/inkscape"
   xmlns:sodipodi="http://sodipodi.sourceforge.net/DTD/sodipodi-0.dtd"
   xmlns="http://www.w3.org/2000/svg"
   xmlns:svg="http://www.w3.org/2000/svg">
  <defs
     id="defs1" />
  <sodipodi:namedview
     id="namedview1"
     pagecolor="#ffffff"
     bordercolor="#000000"
     borderopacity="0.25"
     inkscape:showpageshadow="2"
     inkscape:pageopacity="0.0"
     inkscape:pagecheckerboard="0"
     inkscape:deskcolor="#d1d1d1"
     inkscape:zoom="8.798833"
     inkscape:cx="4.830186"
     inkscape:cy="10.683235"
     inkscape:window-width="1920"
     inkscape:window-height="1172"
     inkscape:window-x="0"
     inkscape:window-y="0"
     inkscape:window-maximized="1"
     inkscape:current-layer="svg1" />
  <path
     style="font-size:24.6169px;font-family:'Arial Black';-inkscape-font-specification:'Arial Black, ';opacity:1;fill:#ffffff;stroke-width:2.45482"
     d="m -136.23502,76.048307 v 24.168153 h -5.25864 V 84.379916 q -1.27637,1.23191 -2.47616,1.993752 -1.18701,0.76184 -2.98669,1.458842 v -5.413925 q 2.65485,-1.086028 4.12266,-2.609708 1.46783,-1.52368 2.29747,-3.76057 z m 8.78142,11.395179 q -1.22531,-0.826679 -1.78692,-1.847867 -0.76583,-1.394005 -0.76583,-3.209453 0,-2.982524 2.20813,-4.879017 1.72309,-1.458842 4.55663,-1.458842 3.75253,0 5.53944,1.815446 1.79968,1.815449 1.79968,4.571041 0,1.604725 -0.71476,2.99873 -0.53608,1.037399 -1.68482,2.009962 1.51889,0.923932 2.25918,2.447612 0.75306,1.523681 0.75306,3.371546 0,1.783029 -0.65095,3.339128 -0.63818,1.539889 -1.5827,2.382776 -0.93176,0.842886 -2.33575,1.231912 -1.39125,0.40523 -2.97393,0.40523 -2.97395,0 -4.54388,-0.891512 -1.56994,-0.891514 -2.38681,-2.625915 -0.81688,-1.734402 -0.81688,-3.874037 0,-2.091008 0.76582,-3.53364 0.76582,-1.458842 2.36129,-2.2531 z m 2.33575,-4.668296 q 0,1.231912 0.59989,1.993752 0.61266,0.745629 1.621,0.745629 0.89345,0 1.46782,-0.745629 0.57436,-0.745631 0.57436,-1.928915 0,-1.231911 -0.59989,-1.99375 -0.5999,-0.77805 -1.53164,-0.77805 -0.94451,0 -1.54441,0.761841 -0.58713,0.745629 -0.58713,1.945122 z m -0.2808,10.228106 q 0,1.572307 0.75305,2.577288 0.75307,0.988768 1.72311,0.988768 0.93174,0 1.67203,-1.004978 0.7403,-1.021189 0.7403,-2.577288 0,-1.572307 -0.75306,-2.577289 -0.74029,-1.00498 -1.72309,-1.00498 -0.97004,0 -1.69758,0.972561 -0.71476,0.972563 -0.71476,2.625918 z m 12.80197,-7.278003 h 4.88849 V 79.48469 h 4.12268 v 6.240603 h 4.914018 v 5.251832 h -4.914018 v 6.208184 h -4.12268 v -6.208184 h -4.88849 z"
     id="text1"
     aria-label="18+" />
</svg>
