<?xml version="1.0" encoding="UTF-8" standalone="no"?>
<svg
   viewBox="-147.814 60.335 50 56"
   version="1.1"
   id="svg1"
   sodipodi:docname="img.svg"
   inkscape:version="1.4.3 (0d15f75042, 2025-12-25)"
   xmlns:inkscape="http://www.inkscape.org/namespaces/inkscape"
   xmlns:sodipodi="http://sodipodi.sourceforge.net/DTD/sodipodi-0.dtd"
   xmlns="http://www.w3.org/2000/svg"
   xmlns:svg="http://www.w3.org/2000/svg">
  <defs
     id="defs1" />
  <sodipodi:namedview
     id="namedview1"
     pagecolor="#ffffff"
     bordercolor="#000000"
     borderopacity="0.25"
     inkscape:showpageshadow="2"
     inkscape:pageopacity="0.0"
     inkscape:pagecheckerboard="0"
     inkscape:deskcolor="#d1d1d1"
     inkscape:zoom="12.443429"
     inkscape:cx="24.872565"
     inkscape:cy="25.716384"
     inkscape:window-width="1920"
     inkscape:window-height="1172"
     inkscape:window-x="0"
     inkscape:window-y="0"
     inkscape:window-maximized="1"
     inkscape:current-layer="svg1" />
  <path
     style="font-size:24.6169px;font-family:'Arial Black';-inkscape-font-specification:'Arial Black, ';opacity:1;fill:#ffffff;stroke-width:2.05141"
     d="m -135.453,79.223862 v 17.921776 h -4.95223 V 85.402126 q -1.202,0.913518 -2.33188,1.478457 -1.11785,0.564938 -2.81267,1.081797 v -4.01467 q 2.50016,-0.805338 3.88245,-1.935215 1.3823,-1.129878 2.1636,-2.788633 z m 8.26974,8.450039 q -1.15392,-0.613019 -1.6828,-1.370277 -0.7212,-1.033717 -0.7212,-2.379954 0,-2.211675 2.07946,-3.618011 1.62269,-1.081797 4.29113,-1.081797 3.53387,0 5.21666,1.346236 1.69482,1.346237 1.69482,3.389632 0,1.189977 -0.67312,2.223694 -0.50484,0.769279 -1.58664,1.490477 1.43038,0.685138 2.12754,1.815015 0.70918,1.129878 0.70918,2.500154 0,1.322197 -0.61302,2.476114 -0.601,1.141897 -1.49048,1.766936 -0.87746,0.625038 -2.19965,0.913518 -1.31018,0.300499 -2.80065,0.300499 -2.80066,0 -4.27911,-0.661099 -1.47846,-0.661098 -2.24774,-1.947235 -0.76928,-1.286137 -0.76928,-2.872773 0,-1.550576 0.7212,-2.620353 0.7212,-1.081798 2.2237,-1.670776 z m 2.19965,-3.461752 q 0,0.913518 0.56494,1.478457 0.57696,0.552918 1.52654,0.552918 0.84139,0 1.38229,-0.552918 0.5409,-0.552919 0.5409,-1.430377 0,-0.913518 -0.56494,-1.478456 -0.56494,-0.576959 -1.44239,-0.576959 -0.88948,0 -1.45442,0.564939 -0.55292,0.552918 -0.55292,1.442396 z m -0.26444,7.584602 q 0,1.165937 0.70918,1.911175 0.70918,0.733218 1.6227,0.733218 0.87745,0 1.57461,-0.745238 0.69716,-0.757258 0.69716,-1.911175 0,-1.165937 -0.70918,-1.911176 -0.69716,-0.745238 -1.62269,-0.745238 -0.91352,0 -1.59866,0.721198 -0.67312,0.721199 -0.67312,1.947236 z m 12.05603,-5.396967 h 4.60365 v -4.627689 h 3.88245 v 4.627689 h 4.62769 v 3.89447 h -4.62769 v 4.603649 h -3.88245 v -4.603649 h -4.60365 z"
     id="text1"
     aria-label="18+" />
</svg>
