<?xml version="1.0" encoding="utf-8"?>
<svg viewBox="-157.576 202.093 69.514 40.283" xmlns="http://www.w3.org/2000/svg">
  <path d="M -147.818 211.664 L -147.818 231.713 L -142.078 231.713 L -142.078 202.644 L -145.891 202.644 C -146.793 206.088 -149.786 207.851 -154.788 207.851 L -154.788 211.664 Z M -118.021 215.887 C -117.037 215.354 -116.586 215.067 -116.135 214.657 C -114.946 213.55 -114.249 211.787 -114.249 209.901 C -114.249 205.35 -118.185 202.029 -123.556 202.029 C -128.968 202.029 -132.904 205.35 -132.904 209.942 C -132.904 212.73 -131.756 214.493 -129.132 215.887 C -132.494 217.732 -133.888 219.905 -133.888 223.349 C -133.888 228.843 -129.665 232.656 -123.556 232.656 C -117.488 232.656 -113.265 228.843 -113.265 223.349 C -113.265 219.905 -114.659 217.732 -118.021 215.887 Z M -123.515 206.662 C -120.973 206.662 -119.21 208.22 -119.21 210.475 C -119.21 212.689 -121.014 214.288 -123.515 214.288 C -126.098 214.288 -127.861 212.73 -127.861 210.434 C -127.861 208.22 -126.098 206.662 -123.515 206.662 Z M -123.597 218.183 C -120.768 218.183 -119.005 220.069 -119.005 223.103 C -119.005 225.891 -120.809 227.736 -123.597 227.736 C -126.385 227.736 -128.148 225.891 -128.148 223.021 C -128.148 220.069 -126.385 218.183 -123.597 218.183 Z M -90.151 219.782 L -97.613 219.782 L -97.613 212.32 L -102.492 212.32 L -102.492 219.782 L -109.954 219.782 L -109.954 224.661 L -102.492 224.661 L -102.492 232.123 L -97.613 232.123 L -97.613 224.661 L -90.151 224.661 Z" style="fill: rgb(255, 255, 255); white-space: pre;"/>
</svg>