<?xml version="1.0" encoding="utf-8"?>
<svg viewBox="-153.263 323.375 60.899 66.142" xmlns="http://www.w3.org/2000/svg">
  <path d="M -96.341 371.048 C -96.341 381.248 -108.118 389.517 -122.645 389.517 C -137.172 389.517 -148.948 381.248 -148.948 371.048 C -148.948 370.133 -148.853 369.233 -148.67 368.353 C -151.334 367.555 -153.263 365.212 -153.263 362.447 C -153.263 359.024 -150.307 356.249 -146.661 356.249 C -144.696 356.249 -142.932 357.055 -141.722 358.334 C -137.102 354.918 -130.64 352.741 -123.453 352.589 L -123.453 331.206 C -125.391 330.853 -126.855 329.251 -126.855 327.327 C -126.855 325.144 -124.97 323.375 -122.645 323.375 C -120.32 323.375 -118.435 325.144 -118.435 327.327 C -118.435 329.25 -119.898 330.852 -121.836 331.206 L -121.836 352.589 C -114.751 352.739 -108.369 354.856 -103.764 358.19 C -102.56 356.995 -100.856 356.249 -98.965 356.249 C -95.319 356.249 -92.364 359.024 -92.364 362.447 C -92.364 365.102 -94.142 367.367 -96.641 368.25 C -96.443 369.162 -96.341 370.097 -96.341 371.048 Z M -112.621 361.976 C -115.425 361.976 -117.697 364.321 -117.697 367.213 C -117.697 370.105 -115.425 372.45 -112.621 372.45 C -109.818 372.45 -107.545 370.105 -107.545 367.213 C -107.545 364.321 -109.818 361.976 -112.621 361.976 Z M -122.813 373.658 C -124.883 373.658 -126.56 376.328 -126.56 379.621 C -126.56 382.913 -124.883 385.583 -122.813 385.583 C -120.744 385.583 -119.067 382.913 -119.067 379.621 C -119.067 376.328 -120.744 373.658 -122.813 373.658 Z M -133.006 361.976 C -135.809 361.976 -138.082 364.321 -138.082 367.213 C -138.082 370.105 -135.809 372.45 -133.006 372.45 C -130.202 372.45 -127.93 370.105 -127.93 367.213 C -127.93 364.321 -130.202 361.976 -133.006 361.976 Z" style="fill: rgb(255, 255, 255);"/>
</svg>