<?xml version="1.0" encoding="utf-8"?>
<svg viewBox="-147.814 266.918 50 45" xmlns="http://www.w3.org/2000/svg">
  <path d="M -143.314 266.918 L -102.314 266.918 L -99.814 267.918 L -97.814 272.418 L -97.814 303.418 L -99.814 307.918 L -102.314 308.918 L -119.314 308.918 L -123.314 311.918 L -126.314 308.918 L -143.314 308.918 L -145.814 307.918 L -147.814 303.418 L -147.814 272.418 L -145.814 267.918 L -143.314 266.918 Z M -140.814 275.918 L -139.814 278.918 L -104.814 278.918 L -104.814 275.918 L -140.814 275.918 Z M -140.814 282.918 L -139.814 285.918 L -104.814 285.918 L -104.814 282.918 L -140.814 282.918 Z M -140.814 289.918 L -139.814 292.918 L -104.814 292.918 L -104.814 289.918 L -140.814 289.918 Z M -140.814 297.918 L -139.814 300.918 L -122.814 300.918 L -122.814 297.918 L -140.814 297.918 Z" style="fill: rgba(252, 252, 252, 1);"/>
</svg>